# xmcd
# Track frame offsets:
# 150
# 19415
# 39030
# 51660
# 69390
# 80843
# 100125
# 118658
# 136615
# 153483
# 172718
# 187413
#
# Disc length: 2715 seconds
# Revision: 0
# Processed by: cddbd v1.4PL0 Copyright (c) Steve Scherf et al.
# Submitted via: VisiTrax 2.9.5.181 - For more info visit www.synapsa.com
#
DISCID=9f0a990c
DTITLE=Jimmy McCracklin - My Story
DYEAR=1991
DGENRE=
TTITLE0=Tomorrow
TTITLE1=Real Love
TTITLE2=Arkansas
TTITLE3=Keep It Like This
TTITLE4=It's Got To Be Love
TTITLE5=In The Ally
TTITLE6=After Hours
TTITLE7=Stuck With Loneliness
TTITLE8=Mama And Papa
TTITLE9=Join The Club
TTITLE10=My Story
TTITLE11=Just A Matter Of Time
EXTD=
EXTT0=
EXTT1=
EXTT2=
EXTT3=
EXTT4=
EXTT5=
EXTT6=
EXTT7=
EXTT8=
EXTT9=
EXTT10=
EXTT11=
PLAYORDER=
